# xmcd
# 
# Track frame offsets:
#     150
#     21990
#     39052
#     59890
#     86782
#     116505
#     124870
#     140042
#     162425
#     190000
#     209502
#     233242
#     249342
# 
# Disc length: 3564
# 
# Revision: 1
# Processed by: cddbd v1.5.2PL0 Copyright (c) Steve Scherf et al.
# Submitted via: BonkEnc v1.0.8
# 
DISCID=bb0dea0d
DTITLE=Paul Bley - Chaos
DYEAR=1994
DGENRE=Contemporary Jazz
TTITLE0=Chaos
TTITLE1=Touching Bass
TTITLE2=Modulating
TTITLE3=Soft Touch
TTITLE4=Poetic Justice
TTITLE5=Interpercussion 1
TTITLE6=Touch Control
TTITLE7=Turnham Bey
TTITLE8=Stree Wise
TTITLE9=Bow Out
TTITLE10=Starting Over
TTITLE11=Interpercussion 2
TTITLE12=Template
EXTD=
EXTT0=
EXTT1=
EXTT2=
EXTT3=
EXTT4=
EXTT5=
EXTT6=
EXTT7=
EXTT8=
EXTT9=
EXTT10=
EXTT11=
EXTT12=
PLAYORDER=
